<svg xmlns="http://www.w3.org/2000/svg" width="130" height="35.314" viewBox="0 0 130 35.314">
  <g id="Group_2983" data-name="Group 2983" transform="translate(0 -0.686)">
    <path id="Path_11548" data-name="Path 11548" d="M22.393,35.386V21H7.267V35.386H0V1.25H7.267V14.658H22.393V1.25h7.318V35.386Z" fill="#0076b6"/>
    <path id="Path_11549" data-name="Path 11549" d="M54.214,35.386l-6.7-12.129H42.187V35.386H34.92V1.25H50.888C58,1.25,62.4,5.907,62.4,12.253c0,5.988-3.838,9.263-7.523,10.133l7.728,13ZM54.931,12.2c0-2.815-2.2-4.555-5.067-4.555H42.187v9.212h7.677C52.73,16.859,54.931,15.119,54.931,12.2Z" fill="#0076b6"/>
    <path id="Path_11550" data-name="Path 11550" d="M64.476,30.575l3.992-5.681a15,15,0,0,0,10.85,4.658c4.044,0,5.937-1.792,5.937-3.787,0-5.938-19.653-1.792-19.653-14.638C65.6,5.446,70.515.738,78.551.738c5.425,0,9.928,1.638,13.306,4.759l-4.043,5.425a14.66,14.66,0,0,0-9.929-3.736c-3.07,0-4.811,1.331-4.811,3.378,0,5.374,19.6,1.74,19.6,14.484,0,6.244-4.5,10.952-13.665,10.952C72.409,36,67.7,33.8,64.476,30.575Z" fill="#0076b6"/>
    <path id="Path_11551" data-name="Path 11551" d="M116.87,28.818a9.477,9.477,0,0,1-3.747.734c-6.244,0-10.748-4.76-10.748-11.209s4.5-11.208,10.748-11.208a9.807,9.807,0,0,1,8.086,4.453L127.2,8.312A15.936,15.936,0,0,0,113.123.686C103.091.686,94.9,7.545,94.9,18.343A17.055,17.055,0,0,0,107.65,35.367C110.549,34.549,114.093,31.826,116.87,28.818Z" fill="#0076b6"/>
    <path id="Path_11552" data-name="Path 11552" d="M112.926,16.216v1.71a4.325,4.325,0,0,0,4.325,4.325h3.974c-.063.193-.14.393-.224.6a22.1,22.1,0,0,1-4.131,5.971c-2.777,3.008-6.321,5.731-9.22,6.549a18.376,18.376,0,0,0,2.947.539c4.939.186,10.121-2.96,12.756-7.46v1.707a4.764,4.764,0,0,0,4.764,4.764H130v-18.7Z" fill="#003b5b"/>
  </g>
</svg>
